<?xml version="1.0" encoding="UTF-8" standalone="no"?>
<!-- Created with Inkscape (http://www.inkscape.org/) -->
<svg
   xmlns:dc="http://purl.org/dc/elements/1.1/"
   xmlns:cc="http://creativecommons.org/ns#"
   xmlns:rdf="http://www.w3.org/1999/02/22-rdf-syntax-ns#"
   xmlns:svg="http://www.w3.org/2000/svg"
   xmlns="http://www.w3.org/2000/svg"
   xmlns:sodipodi="http://sodipodi.sourceforge.net/DTD/sodipodi-0.dtd"
   xmlns:inkscape="http://www.inkscape.org/namespaces/inkscape"
   width="744.09448819"
   height="1052.3622047"
   id="svg2"
   sodipodi:version="0.32"
   inkscape:version="0.46"
   sodipodi:docname="idea.svg"
   inkscape:output_extension="org.inkscape.output.svg.inkscape">
  <defs
     id="defs4">
    <inkscape:perspective
       sodipodi:type="inkscape:persp3d"
       inkscape:vp_x="0 : 526.18109 : 1"
       inkscape:vp_y="0 : 1000 : 0"
       inkscape:vp_z="744.09448 : 526.18109 : 1"
       inkscape:persp3d-origin="372.04724 : 350.78739 : 1"
       id="perspective10" />
  </defs>
  <sodipodi:namedview
     id="base"
     pagecolor="#ffffff"
     bordercolor="#666666"
     borderopacity="1.0"
     gridtolerance="10000"
     guidetolerance="10"
     objecttolerance="10"
     inkscape:pageopacity="0.0"
     inkscape:pageshadow="2"
     inkscape:zoom="0.5"
     inkscape:cx="304.29839"
     inkscape:cy="997.05571"
     inkscape:document-units="px"
     inkscape:current-layer="layer1"
     showgrid="false"
     inkscape:window-width="995"
     inkscape:window-height="862"
     inkscape:window-x="362"
     inkscape:window-y="105" />
  <metadata
     id="metadata7">
    <rdf:RDF>
      <cc:Work
         rdf:about="">
        <dc:format>image/svg+xml</dc:format>
        <dc:type
           rdf:resource="http://purl.org/dc/dcmitype/StillImage" />
      </cc:Work>
    </rdf:RDF>
  </metadata>
  <g
     inkscape:label="Layer 1"
     inkscape:groupmode="layer"
     id="layer1">
    <g
       id="g3269">
      <rect
         ry="10"
         rx="10"
         y="947.11218"
         x="10.25"
         height="95"
         width="95"
         id="rect2383"
         style="fill:#0000ff;fill-rule:evenodd;stroke:#000000;stroke-width:0.50000000000000000px;stroke-linecap:butt;stroke-linejoin:miter;stroke-opacity:1;fill-opacity:0" />
      <rect
         ry="10"
         rx="10"
         y="947.11218"
         x="110.25"
         height="95"
         width="95"
         id="rect2385"
         style="fill:#0000ff;fill-rule:evenodd;stroke:#000000;stroke-width:0.50000000000000000px;stroke-linecap:butt;stroke-linejoin:miter;stroke-opacity:1;fill-opacity:0" />
      <rect
         ry="10"
         rx="10"
         y="947.11218"
         x="210.25"
         height="95"
         width="95"
         id="rect2387"
         style="fill:#0000ff;fill-rule:evenodd;stroke:#000000;stroke-width:0.50000000000000000px;stroke-linecap:butt;stroke-linejoin:miter;stroke-opacity:1;fill-opacity:0" />
      <rect
         ry="10"
         rx="10"
         y="847.11218"
         x="10.25"
         height="95"
         width="95"
         id="rect2389"
         style="fill:#0000ff;fill-rule:evenodd;stroke:#000000;stroke-width:0.50000000000000000px;stroke-linecap:butt;stroke-linejoin:miter;stroke-opacity:1;fill-opacity:0" />
      <rect
         ry="10"
         rx="10"
         y="847.11218"
         x="110.25"
         height="95"
         width="95"
         id="rect2391"
         style="fill:#0000ff;fill-rule:evenodd;stroke:#000000;stroke-width:0.50000000000000000px;stroke-linecap:butt;stroke-linejoin:miter;stroke-opacity:1;fill-opacity:0" />
      <rect
         ry="10"
         rx="10"
         y="847.11218"
         x="210.25"
         height="95"
         width="95"
         id="rect2393"
         style="fill:#0000ff;fill-rule:evenodd;stroke:#000000;stroke-width:0.50000000000000000px;stroke-linecap:butt;stroke-linejoin:miter;stroke-opacity:1;fill-opacity:0" />
      <rect
         ry="10"
         rx="10"
         y="747.11218"
         x="10.25"
         height="95"
         width="95"
         id="rect2395"
         style="fill:#0000ff;fill-rule:evenodd;stroke:#000000;stroke-width:0.50000000000000000px;stroke-linecap:butt;stroke-linejoin:miter;stroke-opacity:1;fill-opacity:0" />
      <rect
         ry="10"
         rx="10"
         y="747.11218"
         x="110.25"
         height="95"
         width="95"
         id="rect2397"
         style="fill:#0000ff;fill-rule:evenodd;stroke:#000000;stroke-width:0.50000000000000000px;stroke-linecap:butt;stroke-linejoin:miter;stroke-opacity:1;fill-opacity:0" />
      <rect
         ry="10"
         rx="10"
         y="747.11218"
         x="210.25"
         height="95"
         width="95"
         id="rect2399"
         style="fill:#0000ff;fill-rule:evenodd;stroke:#000000;stroke-width:0.50000000000000000px;stroke-linecap:butt;stroke-linejoin:miter;stroke-opacity:1;fill-opacity:0" />
    </g>
    <g
       id="g3258">
      <rect
         ry="10"
         rx="10"
         y="947.11218"
         x="410.25"
         height="95"
         width="95"
         id="rect2401"
         style="fill:#0000ff;fill-rule:evenodd;stroke:#000000;stroke-width:0.5px;stroke-linecap:butt;stroke-linejoin:miter;stroke-opacity:1" />
      <rect
         ry="10"
         rx="10"
         y="947.11218"
         x="510.25"
         height="95"
         width="95"
         id="rect2403"
         style="fill:#0000ff;fill-rule:evenodd;stroke:#000000;stroke-width:0.5px;stroke-linecap:butt;stroke-linejoin:miter;stroke-opacity:1" />
      <rect
         ry="10"
         rx="10"
         y="947.11218"
         x="610.25"
         height="95"
         width="95"
         id="rect2405"
         style="fill:#0000ff;fill-rule:evenodd;stroke:#000000;stroke-width:0.5px;stroke-linecap:butt;stroke-linejoin:miter;stroke-opacity:1" />
      <rect
         ry="10"
         rx="10"
         y="847.11218"
         x="410.25"
         height="95"
         width="95"
         id="rect2407"
         style="fill:#0000ff;fill-rule:evenodd;stroke:#000000;stroke-width:0.5px;stroke-linecap:butt;stroke-linejoin:miter;stroke-opacity:1" />
      <rect
         ry="10"
         rx="10"
         y="847.11218"
         x="510.25"
         height="95"
         width="95"
         id="rect2409"
         style="fill:#0000ff;fill-rule:evenodd;stroke:#000000;stroke-width:0.5px;stroke-linecap:butt;stroke-linejoin:miter;stroke-opacity:1" />
      <rect
         ry="10"
         rx="10"
         y="847.11218"
         x="610.25"
         height="95"
         width="95"
         id="rect2411"
         style="fill:#0000ff;fill-rule:evenodd;stroke:#000000;stroke-width:0.5px;stroke-linecap:butt;stroke-linejoin:miter;stroke-opacity:1" />
      <rect
         ry="10"
         rx="10"
         y="747.11218"
         x="410.25"
         height="95"
         width="95"
         id="rect2413"
         style="fill:#0000ff;fill-rule:evenodd;stroke:#000000;stroke-width:0.5px;stroke-linecap:butt;stroke-linejoin:miter;stroke-opacity:1" />
      <rect
         ry="10"
         rx="10"
         y="747.11218"
         x="510.25"
         height="95"
         width="95"
         id="rect2415"
         style="fill:#0000ff;fill-rule:evenodd;stroke:#000000;stroke-width:0.5px;stroke-linecap:butt;stroke-linejoin:miter;stroke-opacity:1" />
      <rect
         ry="10"
         rx="10"
         y="747.11218"
         x="610.25"
         height="95"
         width="95"
         id="rect2417"
         style="fill:#0000ff;fill-rule:evenodd;stroke:#000000;stroke-width:0.5px;stroke-linecap:butt;stroke-linejoin:miter;stroke-opacity:1" />
    </g>
    <rect
       style="fill:#e8001c;fill-opacity:0.81333333"
       id="rect3209"
       width="672"
       height="454"
       x="-98"
       y="184.36218"
       rx="10"
       ry="10" />
    <g
       id="g3247"
       transform="translate(-8,-22)">
      <rect
         ry="10"
         rx="10"
         y="474.86218"
         x="60.5"
         height="95"
         width="95"
         id="rect3229"
         style="fill:#0000ff;fill-rule:evenodd;stroke:#000000;stroke-width:0.5px;stroke-linecap:butt;stroke-linejoin:miter;stroke-opacity:1" />
      <rect
         ry="10"
         rx="10"
         y="474.86218"
         x="160.5"
         height="95"
         width="95"
         id="rect3231"
         style="fill:#0000ff;fill-rule:evenodd;stroke:#000000;stroke-width:0.5px;stroke-linecap:butt;stroke-linejoin:miter;stroke-opacity:1" />
      <rect
         ry="10"
         rx="10"
         y="474.86218"
         x="260.5"
         height="95"
         width="95"
         id="rect3233"
         style="fill:#0000ff;fill-rule:evenodd;stroke:#000000;stroke-width:0.5px;stroke-linecap:butt;stroke-linejoin:miter;stroke-opacity:1" />
      <rect
         ry="10"
         rx="10"
         y="374.86218"
         x="60.5"
         height="95"
         width="95"
         id="rect3235"
         style="fill:#0000ff;fill-rule:evenodd;stroke:#000000;stroke-width:0.5px;stroke-linecap:butt;stroke-linejoin:miter;stroke-opacity:1" />
      <rect
         ry="10"
         rx="10"
         y="374.86218"
         x="160.5"
         height="95"
         width="95"
         id="rect3237"
         style="fill:#0000ff;fill-rule:evenodd;stroke:#000000;stroke-width:0.5px;stroke-linecap:butt;stroke-linejoin:miter;stroke-opacity:1" />
      <rect
         ry="10"
         rx="10"
         y="374.86218"
         x="260.5"
         height="95"
         width="95"
         id="rect3239"
         style="fill:#0000ff;fill-rule:evenodd;stroke:#000000;stroke-width:0.5px;stroke-linecap:butt;stroke-linejoin:miter;stroke-opacity:1" />
      <rect
         ry="10"
         rx="10"
         y="274.86218"
         x="60.5"
         height="95"
         width="95"
         id="rect3241"
         style="fill:#0000ff;fill-rule:evenodd;stroke:#000000;stroke-width:0.5px;stroke-linecap:butt;stroke-linejoin:miter;stroke-opacity:1" />
      <rect
         ry="10"
         rx="10"
         y="274.86218"
         x="160.5"
         height="95"
         width="95"
         id="rect3243"
         style="fill:#0000ff;fill-rule:evenodd;stroke:#000000;stroke-width:0.5px;stroke-linecap:butt;stroke-linejoin:miter;stroke-opacity:1" />
      <rect
         ry="10"
         rx="10"
         y="274.86218"
         x="260.5"
         height="95"
         width="95"
         id="rect3245"
         style="fill:#0000ff;fill-rule:evenodd;stroke:#000000;stroke-width:0.5px;stroke-linecap:butt;stroke-linejoin:miter;stroke-opacity:1" />
    </g>
    <text
       xml:space="preserve"
       style="font-size:92px;font-style:normal;font-weight:normal;fill:#000000;fill-opacity:1;stroke:none;stroke-width:1px;stroke-linecap:butt;stroke-linejoin:miter;stroke-opacity:1;font-family:Bitstream Vera Sans"
       x="70"
       y="332.36218"
       id="text3280"><tspan
         sodipodi:role="line"
         id="tspan3282"
         x="70"
         y="332.36218">S</tspan></text>
    <text
       xml:space="preserve"
       style="font-size:92px;font-style:normal;font-weight:normal;fill:#000000;fill-opacity:1;stroke:none;stroke-width:1px;stroke-linecap:butt;stroke-linejoin:miter;stroke-opacity:1;font-family:Bitstream Vera Sans"
       x="170.3291"
       y="331.85144"
       id="text3284"><tspan
         sodipodi:role="line"
         x="170.3291"
         y="446.85144"
         id="tspan3300">P</tspan></text>
    <text
       xml:space="preserve"
       style="font-size:92px;font-style:normal;font-weight:normal;fill:#000000;fill-opacity:1;stroke:none;stroke-width:1px;stroke-linecap:butt;stroke-linejoin:miter;stroke-opacity:1;font-family:Bitstream Vera Sans"
       x="268.3291"
       y="329.85144"
       id="text3288"><tspan
         sodipodi:role="line"
         id="tspan3290"
         x="268.3291"
         y="329.85144">U</tspan></text>
    <text
       xml:space="preserve"
       style="font-size:92px;font-style:normal;font-weight:normal;fill:#000000;fill-opacity:1;stroke:none;stroke-width:1px;stroke-linecap:butt;stroke-linejoin:miter;stroke-opacity:1;font-family:Bitstream Vera Sans"
       x="170.3291"
       y="433.85144"
       id="text3292"><tspan
         sodipodi:role="line"
         id="tspan3294"
         x="170.3291"
         y="433.85144">L</tspan></text>
    <text
       xml:space="preserve"
       style="font-size:92px;font-style:normal;font-weight:normal;fill:#000000;fill-opacity:1;stroke:none;stroke-width:1px;stroke-linecap:butt;stroke-linejoin:miter;stroke-opacity:1;font-family:Bitstream Vera Sans"
       x="72.329102"
       y="433.85144"
       id="text3296"><tspan
         sodipodi:role="line"
         id="tspan3298"
         x="72.329102"
         y="433.85144">G</tspan></text>
    <path
       style="fill:#e8001c;fill-opacity:0.81333331"
       d="M 478,-432.625 C 472.46,-432.625 468,-428.165 468,-422.625 L 468,11.375 C 468,16.915 472.46,21.375 478,21.375 L 1130,21.375 C 1135.54,21.375 1140,16.915 1140,11.375 L 1140,-422.625 C 1140,-428.165 1135.54,-432.625 1130,-432.625 L 478,-432.625 z M 668.5,-335.125 L 743.5,-335.125 C 749.04,-335.125 753.5,-330.665 753.5,-325.125 L 753.5,-250.125 C 753.5,-244.585 749.04,-240.125 743.5,-240.125 L 668.5,-240.125 C 662.96,-240.125 658.5,-244.585 658.5,-250.125 L 658.5,-325.125 C 658.5,-330.665 662.96,-335.125 668.5,-335.125 z M 768.5,-335.125 L 843.5,-335.125 C 849.04,-335.125 853.5,-330.665 853.5,-325.125 L 853.5,-250.125 C 853.5,-244.585 849.04,-240.125 843.5,-240.125 L 768.5,-240.125 C 762.96,-240.125 758.5,-244.585 758.5,-250.125 L 758.5,-325.125 C 758.5,-330.665 762.96,-335.125 768.5,-335.125 z M 868.5,-335.125 L 943.5,-335.125 C 949.04,-335.125 953.5,-330.665 953.5,-325.125 L 953.5,-250.125 C 953.5,-244.585 949.04,-240.125 943.5,-240.125 L 868.5,-240.125 C 862.96,-240.125 858.5,-244.585 858.5,-250.125 L 858.5,-325.125 C 858.5,-330.665 862.96,-335.125 868.5,-335.125 z M 668.5,-235.125 L 743.5,-235.125 C 749.04,-235.125 753.5,-230.665 753.5,-225.125 L 753.5,-150.125 C 753.5,-144.585 749.04,-140.125 743.5,-140.125 L 668.5,-140.125 C 662.96,-140.125 658.5,-144.585 658.5,-150.125 L 658.5,-225.125 C 658.5,-230.665 662.96,-235.125 668.5,-235.125 z M 768.5,-235.125 L 843.5,-235.125 C 849.04,-235.125 853.5,-230.665 853.5,-225.125 L 853.5,-150.125 C 853.5,-144.585 849.04,-140.125 843.5,-140.125 L 768.5,-140.125 C 762.96,-140.125 758.5,-144.585 758.5,-150.125 L 758.5,-225.125 C 758.5,-230.665 762.96,-235.125 768.5,-235.125 z M 868.5,-235.125 L 943.5,-235.125 C 949.04,-235.125 953.5,-230.665 953.5,-225.125 L 953.5,-150.125 C 953.5,-144.585 949.04,-140.125 943.5,-140.125 L 868.5,-140.125 C 862.96,-140.125 858.5,-144.585 858.5,-150.125 L 858.5,-225.125 C 858.5,-230.665 862.96,-235.125 868.5,-235.125 z M 668.5,-135.125 L 743.5,-135.125 C 749.04,-135.125 753.5,-130.665 753.5,-125.125 L 753.5,-50.125 C 753.5,-44.585 749.04,-40.125 743.5,-40.125 L 668.5,-40.125 C 662.96,-40.125 658.5,-44.585 658.5,-50.125 L 658.5,-125.125 C 658.5,-130.665 662.96,-135.125 668.5,-135.125 z M 768.5,-135.125 L 843.5,-135.125 C 849.04,-135.125 853.5,-130.665 853.5,-125.125 L 853.5,-50.125 C 853.5,-44.585 849.04,-40.125 843.5,-40.125 L 768.5,-40.125 C 762.96,-40.125 758.5,-44.585 758.5,-50.125 L 758.5,-125.125 C 758.5,-130.665 762.96,-135.125 768.5,-135.125 z M 868.5,-135.125 L 943.5,-135.125 C 949.04,-135.125 953.5,-130.665 953.5,-125.125 L 953.5,-50.125 C 953.5,-44.585 949.04,-40.125 943.5,-40.125 L 868.5,-40.125 C 862.96,-40.125 858.5,-44.585 858.5,-50.125 L 858.5,-125.125 C 858.5,-130.665 862.96,-135.125 868.5,-135.125 z"
       id="rect2430" />
    <path
       style="fill:#e8ca1c;fill-opacity:0.81333331"
       d="M -502,-537.625 C -507.54,-537.625 -512,-533.165 -512,-527.625 L -512,74.375 C -512,79.915 -507.54,84.375 -502,84.375 L 352,84.375 C 357.54,84.375 362,79.915 362,74.375 L 362,-527.625 C 362,-533.165 357.54,-537.625 352,-537.625 L -502,-537.625 z M -400,-464.625 L 252,-464.625 C 257.54,-464.625 262,-460.165 262,-454.625 L 262,-20.625 C 262,-15.085 257.54,-10.625 252,-10.625 L -400,-10.625 C -405.54,-10.625 -410,-15.085 -410,-20.625 L -410,-454.625 C -410,-460.165 -405.54,-464.625 -400,-464.625 z M -209.5,-367.125 C -215.04,-367.125 -219.5,-362.665 -219.5,-357.125 L -219.5,-282.125 C -219.5,-276.585 -215.04,-272.125 -209.5,-272.125 L -134.5,-272.125 C -128.96,-272.125 -124.5,-276.585 -124.5,-282.125 L -124.5,-357.125 C -124.5,-362.665 -128.96,-367.125 -134.5,-367.125 L -209.5,-367.125 z M -109.5,-367.125 C -115.04,-367.125 -119.5,-362.665 -119.5,-357.125 L -119.5,-282.125 C -119.5,-276.585 -115.04,-272.125 -109.5,-272.125 L -34.5,-272.125 C -28.96,-272.125 -24.5,-276.585 -24.5,-282.125 L -24.5,-357.125 C -24.5,-362.665 -28.96,-367.125 -34.5,-367.125 L -109.5,-367.125 z M -9.5,-367.125 C -15.04,-367.125 -19.5,-362.665 -19.5,-357.125 L -19.5,-282.125 C -19.5,-276.585 -15.04,-272.125 -9.5,-272.125 L 65.5,-272.125 C 71.04,-272.125 75.5,-276.585 75.5,-282.125 L 75.5,-357.125 C 75.5,-362.665 71.04,-367.125 65.5,-367.125 L -9.5,-367.125 z M -209.5,-267.125 C -215.04,-267.125 -219.5,-262.665 -219.5,-257.125 L -219.5,-182.125 C -219.5,-176.585 -215.04,-172.125 -209.5,-172.125 L -134.5,-172.125 C -128.96,-172.125 -124.5,-176.585 -124.5,-182.125 L -124.5,-257.125 C -124.5,-262.665 -128.96,-267.125 -134.5,-267.125 L -209.5,-267.125 z M -109.5,-267.125 C -115.04,-267.125 -119.5,-262.665 -119.5,-257.125 L -119.5,-182.125 C -119.5,-176.585 -115.04,-172.125 -109.5,-172.125 L -34.5,-172.125 C -28.96,-172.125 -24.5,-176.585 -24.5,-182.125 L -24.5,-257.125 C -24.5,-262.665 -28.96,-267.125 -34.5,-267.125 L -109.5,-267.125 z M -9.5,-267.125 C -15.04,-267.125 -19.5,-262.665 -19.5,-257.125 L -19.5,-182.125 C -19.5,-176.585 -15.04,-172.125 -9.5,-172.125 L 65.5,-172.125 C 71.04,-172.125 75.5,-176.585 75.5,-182.125 L 75.5,-257.125 C 75.5,-262.665 71.04,-267.125 65.5,-267.125 L -9.5,-267.125 z M -209.5,-167.125 C -215.04,-167.125 -219.5,-162.665 -219.5,-157.125 L -219.5,-82.125 C -219.5,-76.585 -215.04,-72.125 -209.5,-72.125 L -134.5,-72.125 C -128.96,-72.125 -124.5,-76.585 -124.5,-82.125 L -124.5,-157.125 C -124.5,-162.665 -128.96,-167.125 -134.5,-167.125 L -209.5,-167.125 z M -109.5,-167.125 C -115.04,-167.125 -119.5,-162.665 -119.5,-157.125 L -119.5,-82.125 C -119.5,-76.585 -115.04,-72.125 -109.5,-72.125 L -34.5,-72.125 C -28.96,-72.125 -24.5,-76.585 -24.5,-82.125 L -24.5,-157.125 C -24.5,-162.665 -28.96,-167.125 -34.5,-167.125 L -109.5,-167.125 z M -9.5,-167.125 C -15.04,-167.125 -19.5,-162.665 -19.5,-157.125 L -19.5,-82.125 C -19.5,-76.585 -15.04,-72.125 -9.5,-72.125 L 65.5,-72.125 C 71.04,-72.125 75.5,-76.585 75.5,-82.125 L 75.5,-157.125 C 75.5,-162.665 71.04,-167.125 65.5,-167.125 L -9.5,-167.125 z"
       id="rect2479" />
  </g>
</svg>
